<svg width="32" height="32" viewBox="0 0 32 32" fill="none" xmlns="http://www.w3.org/2000/svg">
<path opacity="0.2" d="M21.5868 2.66666H10.4134C5.56008 2.66666 2.66675 5.55999 2.66675 10.4133V21.5733C2.66675 26.44 5.56008 29.3333 10.4134 29.3333H21.5734C26.4268 29.3333 29.3201 26.44 29.3201 21.5867V10.4133C29.3334 5.55999 26.4401 2.66666 21.5868 2.66666Z" fill="#787486"/>
<path d="M19.6965 11.286L16.4711 14.5114L13.2457 11.286C12.8388 10.8791 12.1639 10.8791 11.757 11.286C11.3501 11.6929 11.3501 12.3677 11.757 12.7746L14.9824 16L11.757 19.2254C11.3501 19.6323 11.3501 20.3071 11.757 20.714C12.1639 21.1209 12.8388 21.1209 13.2457 20.714L16.4711 17.4886L19.6965 20.714C20.1034 21.1209 20.7782 21.1209 21.1851 20.714C21.592 20.3071 21.592 19.6323 21.1851 19.2254L17.9597 16L21.1851 12.7746C21.592 12.3677 21.592 11.6929 21.1851 11.286C20.7782 10.8791 20.1034 10.8791 19.6965 11.286Z" fill="#0D062D"/>
</svg>
