<svg width="15" height="15" viewBox="0 0 15 15" fill="none" xmlns="http://www.w3.org/2000/svg">
<path d="M7.46572 14.191C7.03645 14.191 6.63206 13.9733 6.34587 13.5938L5.41266 12.3495C5.394 12.3246 5.31934 12.2935 5.28823 12.2873H4.97716C2.38283 12.2873 0.77771 11.5843 0.77771 8.08783V4.97713C0.77771 2.22727 2.2273 0.777679 4.97716 0.777679H9.95429C12.7042 0.777679 14.1537 2.22727 14.1537 4.97713V8.08783C14.1537 10.8377 12.7042 12.2873 9.95429 12.2873H9.64322C9.59345 12.2873 9.5499 12.3122 9.51879 12.3495L8.58558 13.5938C8.29939 13.9733 7.895 14.191 7.46572 14.191ZM4.97716 1.71089C2.7499 1.71089 1.71092 2.74987 1.71092 4.97713V8.08783C1.71092 10.8999 2.67524 11.3541 4.97716 11.3541H5.28823C5.60552 11.3541 5.96637 11.5345 6.15923 11.7896L7.09244 13.0339C7.31019 13.32 7.62126 13.32 7.83901 13.0339L8.77222 11.7896C8.97753 11.5158 9.30104 11.3541 9.64322 11.3541H9.95429C12.1816 11.3541 13.2205 10.3151 13.2205 8.08783V4.97713C13.2205 2.74987 12.1816 1.71089 9.95429 1.71089H4.97716Z" fill="#787486"/>
<path d="M7.46577 7.46569C7.11737 7.46569 6.84363 7.18572 6.84363 6.84355C6.84363 6.50137 7.12359 6.22141 7.46577 6.22141C7.80795 6.22141 8.08791 6.50137 8.08791 6.84355C8.08791 7.18572 7.81417 7.46569 7.46577 7.46569Z" fill="#787486"/>
<path d="M9.95429 7.46569C9.6059 7.46569 9.33215 7.18572 9.33215 6.84355C9.33215 6.50137 9.61212 6.22141 9.95429 6.22141C10.2965 6.22141 10.5764 6.50137 10.5764 6.84355C10.5764 7.18572 10.3027 7.46569 9.95429 7.46569Z" fill="#787486"/>
<path d="M4.97712 7.46569C4.62872 7.46569 4.35498 7.18572 4.35498 6.84355C4.35498 6.50137 4.63494 6.22141 4.97712 6.22141C5.3193 6.22141 5.59926 6.50137 5.59926 6.84355C5.59926 7.18572 5.32552 7.46569 4.97712 7.46569Z" fill="#787486"/>
</svg>
