<svg width="15" height="15" viewBox="0 0 15 15" fill="none" xmlns="http://www.w3.org/2000/svg">
<path d="M10.6692 6.91288C10.6812 6.90094 10.693 6.88913 10.7047 6.87742C10.8804 6.70215 11.0319 6.55096 11.1304 6.38265C11.4043 5.91467 11.4043 5.33533 11.1304 4.86735C11.0319 4.69904 10.8804 4.54785 10.7047 4.37258C10.692 4.35983 10.6791 4.34696 10.6661 4.33395L10.6661 4.33395C10.6652 4.33309 10.6643 4.33223 10.6635 4.33137C10.6513 4.31923 10.6393 4.30719 10.6274 4.29527C10.4521 4.11963 10.301 3.96812 10.1326 3.86962C9.66467 3.59574 9.08533 3.59574 8.61735 3.86962C8.44904 3.96812 8.29785 4.11963 8.12258 4.29526C8.10983 4.30803 8.09696 4.32093 8.08395 4.33394L8.08395 4.33395L3.78816 8.62973L3.78816 8.62973C3.77714 8.64076 3.76619 8.65168 3.75533 8.66252C3.59286 8.82465 3.44903 8.96817 3.34766 9.1472C3.2463 9.32623 3.19723 9.52341 3.14179 9.74614C3.13809 9.76103 3.13435 9.77604 3.13057 9.79116L2.84204 10.9453C2.83983 10.9541 2.8376 10.963 2.83536 10.972C2.79612 11.1287 2.75421 11.296 2.74046 11.4365C2.72532 11.5913 2.72885 11.8523 2.93826 12.0617C3.14767 12.2711 3.40873 12.2747 3.56346 12.2595C3.70399 12.2458 3.87131 12.2039 4.02799 12.1646C4.03693 12.1624 4.04584 12.1602 4.05471 12.158L4.05472 12.158L5.20884 11.8694C5.22397 11.8656 5.23898 11.8619 5.25387 11.8582C5.4766 11.8028 5.67377 11.7537 5.8528 11.6523L5.60645 11.2172L5.8528 11.6523C6.03183 11.551 6.17535 11.4071 6.33748 11.2447C6.34832 11.2338 6.35925 11.2229 6.37027 11.2118L10.6661 6.91605L10.6661 6.91605C10.6671 6.91499 10.6682 6.91393 10.6692 6.91288Z" stroke="black"/>
<path d="M7.8125 4.6875L9.6875 3.4375L11.5625 5.3125L10.3125 7.1875L7.8125 4.6875Z" fill="black"/>
</svg>
