<svg width="16" height="16" viewBox="0 0 16 16" fill="none" xmlns="http://www.w3.org/2000/svg">
<path d="M3.37868 9.74131C2.99691 9.74131 2.66993 9.60698 2.39774 9.33833C2.12909 9.06968 1.99653 8.74447 2.00007 8.3627C1.99653 7.988 2.12909 7.66809 2.39774 7.40298C2.66993 7.13433 2.99691 7 3.37868 7C3.73924 7 4.05738 7.13433 4.3331 7.40298C4.61235 7.66809 4.75375 7.988 4.75728 8.3627C4.75375 8.61721 4.68659 8.84875 4.5558 9.05731C4.42854 9.26587 4.26063 9.43201 4.05207 9.55573C3.84705 9.67945 3.62258 9.74131 3.37868 9.74131Z" fill="#0D062D"/>
<path d="M8.36028 9.74131C7.97851 9.74131 7.65153 9.60698 7.37934 9.33833C7.11069 9.06968 6.97813 8.74447 6.98167 8.3627C6.97813 7.988 7.11069 7.66809 7.37934 7.40298C7.65153 7.13433 7.97851 7 8.36028 7C8.72083 7 9.03897 7.13433 9.3147 7.40298C9.59395 7.66809 9.73535 7.988 9.73888 8.3627C9.73535 8.61721 9.66819 8.84875 9.53739 9.05731C9.41014 9.26587 9.24223 9.43201 9.03367 9.55573C8.82865 9.67945 8.60418 9.74131 8.36028 9.74131Z" fill="#0D062D"/>
<path d="M13.3419 9.74131C12.9601 9.74131 12.6331 9.60698 12.3609 9.33833C12.0923 9.06968 11.9597 8.74447 11.9633 8.3627C11.9597 7.988 12.0923 7.66809 12.3609 7.40298C12.6331 7.13433 12.9601 7 13.3419 7C13.7024 7 14.0206 7.13433 14.2963 7.40298C14.5756 7.66809 14.7169 7.988 14.7205 8.3627C14.7169 8.61721 14.6498 8.84875 14.519 9.05731C14.3917 9.26587 14.2238 9.43201 14.0153 9.55573C13.8102 9.67945 13.5858 9.74131 13.3419 9.74131Z" fill="#0D062D"/>
</svg>
